<?xml version="1.0" encoding="UTF-8" standalone="no"?>
<svg
   enable-background="new 0 0 24 24"
   height="24"
   viewBox="0 0 24 24"
   width="24"
   fill="#000000"
   version="1.1"
   id="svg263"
   xmlns="http://www.w3.org/2000/svg"
   xmlns:svg="http://www.w3.org/2000/svg">
  <defs
     id="defs267" />
  <g
     id="g255">
    <rect
       fill="none"
       height="24"
       width="24"
       id="rect253"
       x="0"
       y="0" />
  </g>
  <g
     id="g261"
     style="fill:#00ff00"
     transform="matrix(1.1802153,0,0,1,-1.99543,0)">
    <g
       id="g259"
       style="fill:#00ff00">
      <path
         d="M 21.58,16.09 20.49,8.43 C 20.21,6.46 18.52,5 16.53,5 H 7.47 C 5.48,5 3.79,6.46 3.51,8.43 L 2.42,16.09 C 2.2,17.63 3.39,19 4.94,19 v 0 c 0.68,0 1.32,-0.27 1.8,-0.75 L 9,16 h 6 l 2.25,2.25 c 0.48,0.48 1.13,0.75 1.8,0.75 v 0 c 1.56,0 2.75,-1.37 2.53,-2.91 z M 11,11 H 9 v 2 H 8 V 11 H 6 V 10 H 8 V 8 h 1 v 2 h 2 z m 4,-1 c -0.55,0 -1,-0.45 -1,-1 0,-0.55 0.45,-1 1,-1 0.55,0 1,0.45 1,1 0,0.55 -0.45,1 -1,1 z m 2,3 c -0.55,0 -1,-0.45 -1,-1 0,-0.55 0.45,-1 1,-1 0.55,0 1,0.45 1,1 0,0.55 -0.45,1 -1,1 z"
         id="path257"
         style="fill:#00ff00" />
    </g>
  </g>
</svg>
