<?xml version="1.0" encoding="UTF-8" standalone="no"?>
<svg
   height="24"
   viewBox="0 0 24 24"
   width="24"
   fill="#000000"
   version="1.1"
   id="svg323"
   sodipodi:docname="inovaçãos.svg"
   inkscape:export-filename="inovaçãos.png"
   inkscape:export-xdpi="400"
   inkscape:export-ydpi="400"
   inkscape:version="1.2.2 (b0a8486541, 2022-12-01)"
   xmlns:inkscape="http://www.inkscape.org/namespaces/inkscape"
   xmlns:sodipodi="http://sodipodi.sourceforge.net/DTD/sodipodi-0.dtd"
   xmlns="http://www.w3.org/2000/svg"
   xmlns:svg="http://www.w3.org/2000/svg">
  <defs
     id="defs327" />
  <sodipodi:namedview
     id="namedview325"
     pagecolor="#ffffff"
     bordercolor="#000000"
     borderopacity="0.25"
     inkscape:showpageshadow="2"
     inkscape:pageopacity="0.0"
     inkscape:pagecheckerboard="0"
     inkscape:deskcolor="#d1d1d1"
     showgrid="false"
     inkscape:zoom="9.8333333"
     inkscape:cx="3.559322"
     inkscape:cy="20.237288"
     inkscape:window-width="1300"
     inkscape:window-height="683"
     inkscape:window-x="30"
     inkscape:window-y="30"
     inkscape:window-maximized="1"
     inkscape:current-layer="svg323" />
  <path
     d="M 0,0 H 24 V 24 H 0 Z"
     fill="none"
     id="path319" />
  <path
     d="M 15.457427,8.3826692 H 8.4947713 v 6.8694698 h 6.9626557 z m -2.320886,4.5796468 h -2.320885 v -2.289823 h 2.320885 z m 9.28354,-2.289823 V 8.3826692 H 20.099196 V 6.092846 c 0,-1.2594029 -1.044398,-2.2898234 -2.320885,-2.2898234 H 15.457427 V 1.5131993 H 13.136541 V 3.8030226 H 10.815656 V 1.5131993 H 8.4947713 v 2.2898233 h -2.320885 c -1.2764867,0 -2.3208848,1.0304205 -2.3208848,2.2898234 v 2.2898232 h -2.320885 v 2.2898238 h 2.320885 v 2.289823 h -2.320885 v 2.289823 h 2.320885 v 2.289824 c 0,1.259402 1.0443981,2.289823 2.3208848,2.289823 h 2.320885 v 2.289823 h 2.3208847 v -2.289823 h 2.320885 v 2.289823 h 2.320886 v -2.289823 h 2.320884 c 1.276487,0 2.320885,-1.030421 2.320885,-2.289823 v -2.289824 h 2.320885 v -2.289823 h -2.320885 v -2.289823 z m -4.64177,6.86947 H 6.1738863 V 6.092846 H 17.778311 Z"
     id="path321"
     style="fill:#bb1fe2;stroke-width:1.15266;fill-opacity:0.91000003" />
</svg>
