<?xml version="1.0" encoding="UTF-8" standalone="no"?>
<svg
   height="24"
   viewBox="0 0 24 24"
   width="24"
   fill="#000000"
   version="1.1"
   id="svg457"
   sodipodi:docname="variações.svg"
   xmlns:inkscape="http://www.inkscape.org/namespaces/inkscape"
   xmlns:sodipodi="http://sodipodi.sourceforge.net/DTD/sodipodi-0.dtd"
   xmlns="http://www.w3.org/2000/svg"
   xmlns:svg="http://www.w3.org/2000/svg">
  <defs
     id="defs461" />
  <sodipodi:namedview
     id="namedview459"
     pagecolor="#ffffff"
     bordercolor="#000000"
     borderopacity="0.25"
     inkscape:showpageshadow="2"
     inkscape:pageopacity="0.0"
     inkscape:pagecheckerboard="0"
     inkscape:deskcolor="#d1d1d1"
     showgrid="false"
     showguides="true">
    <sodipodi:guide
       position="28.851831,30.410107"
       orientation="0,-1"
       id="guide975"
       inkscape:locked="false" />
    <sodipodi:guide
       position="-3.4869807,-1.2931775"
       orientation="1,0"
       id="guide1053"
       inkscape:locked="false" />
    <sodipodi:guide
       position="7.3125,20.03125"
       orientation="0,-1"
       id="guide1055"
       inkscape:locked="false" />
    <sodipodi:guide
       position="6.78125,19"
       orientation="0,-1"
       id="guide1057"
       inkscape:locked="false" />
    <sodipodi:guide
       position="6.59375,4.03125"
       orientation="0,-1"
       id="guide1059"
       inkscape:locked="false" />
    <sodipodi:guide
       position="5.03125,4.96875"
       orientation="0,-1"
       id="guide1061"
       inkscape:locked="false" />
  </sodipodi:namedview>
  <path
     d="M 0,0 H 24 V 24 H 0 Z"
     fill="none"
     id="path453" />
  <path
     d="M 21.563457,4 H 2.6112461 C 1.4530554,4 0.50544489,4.9 0.50544489,6 v 12 c 0,1.1 0.94761051,2 2.10580121,2 H 21.563457 c 1.158189,0 2.095271,-0.9 2.095271,-2 l 0.01053,-12 c 0,-1.1 -0.947611,-2 -2.105801,-2 z M 19.457655,18 H 4.7170471 V 6 H 19.457655 Z"
     id="path455"
     style="fill:#00ff00;stroke-width:1.02611" />
  <path
     style="fill:#cccccc;stroke-width:0.791388"
     id="path929-3-6"
     sodipodi:type="arc"
     sodipodi:cx="21.782623"
     sodipodi:cy="6.5505576"
     sodipodi:rx="0.84722358"
     sodipodi:ry="0.93860644"
     sodipodi:start="4.6543274"
     sodipodi:end="4.649221"
     sodipodi:open="true"
     sodipodi:arc-type="arc"
     d="m 21.73346,5.6135328 a 0.84722358,0.93860644 0 0 1 0.894896,0.8813623 0.84722358,0.93860644 0 0 1 -0.79441,0.9925452 0.84722358,0.93860644 0 0 1 -0.896924,-0.8788281 0.84722358,0.93860644 0 0 1 0.792119,-0.994789" />
  <path
     style="fill:#ffffff;stroke-width:0.473147"
     id="path929-3"
     sodipodi:type="arc"
     sodipodi:cx="21.761938"
     sodipodi:cy="6.5431747"
     sodipodi:rx="0.5278641"
     sodipodi:ry="0.53848672"
     sodipodi:start="4.6543274"
     sodipodi:end="4.649221"
     sodipodi:open="true"
     sodipodi:arc-type="arc"
     d="M 21.731307,6.0055954 A 0.5278641,0.53848672 0 0 1 22.288873,6.5112407 0.5278641,0.53848672 0 0 1 21.793915,7.0806725 0.5278641,0.53848672 0 0 1 21.235085,6.5764812 0.5278641,0.53848672 0 0 1 21.728616,6.005762" />
  <rect
     style="fill:#cccccc;stroke-width:1.00157"
     id="rect1029"
     width="0.17393398"
     height="6.0236506"
     x="2.5874557"
     y="4.9942665"
     ry="0.086966991" />
  <rect
     style="fill:#cccccc;stroke-width:1.00157"
     id="rect1029-7"
     width="0.17393398"
     height="6.0236506"
     x="2.5906281"
     y="13.004169"
     ry="0.086966991" />
  <path
     style="fill:#ffffff;stroke-width:1.00157"
     id="path929"
     sodipodi:type="arc"
     sodipodi:cx="2.6706855"
     sodipodi:cy="11.998781"
     sodipodi:rx="1.1561929"
     sodipodi:ry="1.1016308"
     sodipodi:start="4.6543274"
     sodipodi:end="4.649221"
     sodipodi:open="true"
     sodipodi:arc-type="arc"
     d="M 2.6035929,10.899007 A 1.1561929,1.1016308 0 0 1 3.8248435,11.933451 1.1561929,1.1016308 0 0 1 2.740725,13.098389 1.1561929,1.1016308 0 0 1 1.5167063,12.066919 1.1561929,1.1016308 0 0 1 2.5976997,10.899348" />
</svg>
